<svg xmlns="http://www.w3.org/2000/svg" width="274.355" height="45.887" viewBox="0 0 274.355 45.887">
  <g id="BSM_Logo_White" data-name="BSM Logo White" transform="translate(-423.651 -761.482)">
    <g id="Layer_1" data-name="Layer 1">
      <g id="Group_550" data-name="Group 550">
        <path id="Path_1841" data-name="Path 1841" d="M476.937,778.052c-.55,0-1.138.026-1.737.076v-3.911a1.041,1.041,0,0,0-1.15-1.151h-1.174a1.041,1.041,0,0,0-1.15,1.151v12.646c0,2.8,1.562,3.924,5.211,3.924,4.387,0,6.985-1.624,6.985-6.373S481.324,778.052,476.937,778.052Zm.237,9.811c-1.774,0-1.974-.513-1.974-1.524v-5.224a14.537,14.537,0,0,1,1.949-.15c2.325,0,3.3.825,3.3,3.449C480.449,787,479.474,787.863,477.174,787.863Z" fill="#fff"/>
        <path id="Path_1842" data-name="Path 1842" d="M497.411,778.278h-1.175a1.04,1.04,0,0,0-1.149,1.149v5.624c0,2.2-.8,2.812-2.675,2.812s-2.674-.612-2.674-2.812v-5.624a1.041,1.041,0,0,0-1.151-1.149h-1.174a1.04,1.04,0,0,0-1.15,1.149V785c0,4.486,2.262,5.786,6.149,5.786s6.148-1.3,6.148-5.786v-5.574A1.04,1.04,0,0,0,497.411,778.278Z" fill="#fff"/>
        <path id="Path_1843" data-name="Path 1843" d="M508.1,778.278h-3.4v-1.7a1.042,1.042,0,0,0-1.151-1.15h-1.237a1.041,1.041,0,0,0-1.149,1.15v9.448c0,4.374,3.174,5.386,7.148,4.437a1.124,1.124,0,0,0,.925-1.225v-.625c0-.612-.3-.912-1.075-.912-.438,0-.863.137-1.525.137-1.375,0-1.936-.538-1.936-1.812v-4.9h3.4a1.041,1.041,0,0,0,1.151-1.15v-.55A1.041,1.041,0,0,0,508.1,778.278Z" fill="#fff"/>
        <path id="Path_1844" data-name="Path 1844" d="M518,778.278h-3.4v-1.7a1.041,1.041,0,0,0-1.15-1.15h-1.238a1.041,1.041,0,0,0-1.149,1.15v9.448c0,4.374,3.175,5.386,7.149,4.437a1.123,1.123,0,0,0,.924-1.225v-.625c0-.612-.3-.912-1.075-.912-.437,0-.862.137-1.524.137-1.375,0-1.937-.538-1.937-1.812v-4.9H518a1.041,1.041,0,0,0,1.15-1.15v-.55A1.041,1.041,0,0,0,518,778.278Z" fill="#fff"/>
        <path id="Path_1845" data-name="Path 1845" d="M527.048,778.052c-4.2,0-6.348,2.313-6.348,6.374,0,4.3,2.537,6.361,6.324,6.361a14.775,14.775,0,0,0,3.8-.55,1.2,1.2,0,0,0,.974-1.287v-.375c0-.812-.487-1.162-1.3-.975a12.4,12.4,0,0,1-2.862.4c-1.662,0-2.8-.5-3.25-1.9l5.287-.551c2.249-.237,2.987-.974,2.987-2.723C532.66,779.7,530.573,778.052,527.048,778.052Zm1.462,5.087-4.31.438c.186-2.112,1.111-2.9,2.848-2.9,1.6,0,2.325.637,2.325,1.825C529.373,782.926,529.236,783.064,528.51,783.139Z" fill="#fff"/>
        <path id="Path_1846" data-name="Path 1846" d="M541.212,778.166c-5.288.087-6.312.861-6.312,3.723v7.524a1.04,1.04,0,0,0,1.149,1.149h1.238a1.041,1.041,0,0,0,1.15-1.149v-7.024c0-.937.112-1.162,2.736-1.2.826-.012,1.263-.425,1.263-1.162V779.3C542.436,778.552,542.011,778.153,541.212,778.166Z" fill="#fff"/>
        <path id="Path_1847" data-name="Path 1847" d="M550.861,783.151l-2.812-.725c-.562-.137-.887-.424-.887-.836,0-1.15,2.875-1.026,5.3-.5.812.174,1.287-.175,1.287-.988v-.3a1.2,1.2,0,0,0-.988-1.287c-4.385-1.088-8.923-.338-8.923,3.174,0,1.688,1.05,2.912,3.5,3.537l2.625.675c.836.225,1.224.524,1.224,1.062,0,1.387-2.987,1.212-5.9.65-.813-.15-1.287.225-1.287,1.024v.351a1.2,1.2,0,0,0,.974,1.287c4.461,1.175,9.523.462,9.523-3.4C554.5,784.976,553.31,783.776,550.861,783.151Z" fill="#fff"/>
        <path id="Path_1848" data-name="Path 1848" d="M565.611,778.415a12.524,12.524,0,0,0-2.925-.363c-3.686,0-6.261,2.087-6.261,6.374s2.575,6.361,6.261,6.361a12.465,12.465,0,0,0,2.925-.362,1.175,1.175,0,0,0,.975-1.275v-.425c0-.8-.463-1.149-1.263-1.024a12.059,12.059,0,0,1-2.074.2c-2.337,0-3.3-1.012-3.3-3.474s.962-3.5,3.3-3.5a13.092,13.092,0,0,1,1.849.163c.938.15,1.488-.175,1.488-.975v-.425A1.175,1.175,0,0,0,565.611,778.415Z" fill="#fff"/>
        <path id="Path_1849" data-name="Path 1849" d="M574.773,778.052c-4.086,0-6.323,2.313-6.323,6.374s2.237,6.361,6.323,6.361,6.323-2.312,6.323-6.361S578.86,778.052,574.773,778.052Zm0,9.811c-1.874,0-2.8-1.037-2.8-3.437,0-2.424.925-3.449,2.8-3.449s2.8,1.025,2.8,3.449C577.573,786.826,576.648,787.863,574.773,787.863Z" fill="#fff"/>
        <path id="Path_1850" data-name="Path 1850" d="M590.373,778.278h-3.4v-1.7a1.041,1.041,0,0,0-1.149-1.15h-1.237a1.041,1.041,0,0,0-1.15,1.15v9.448c0,4.374,3.174,5.386,7.148,4.437a1.123,1.123,0,0,0,.924-1.225v-.625c0-.612-.3-.912-1.074-.912-.437,0-.862.137-1.524.137-1.375,0-1.938-.538-1.938-1.812v-4.9h3.4a1.04,1.04,0,0,0,1.149-1.15v-.55A1.04,1.04,0,0,0,590.373,778.278Z" fill="#fff"/>
        <path id="Path_1851" data-name="Path 1851" d="M602.259,778.415a12.507,12.507,0,0,0-2.923-.363c-3.687,0-6.262,2.087-6.262,6.374s2.575,6.361,6.262,6.361a12.449,12.449,0,0,0,2.923-.362,1.175,1.175,0,0,0,.975-1.275v-.425c0-.8-.462-1.149-1.262-1.024a12.06,12.06,0,0,1-2.075.2c-2.337,0-3.3-1.012-3.3-3.474s.962-3.5,3.3-3.5a13.092,13.092,0,0,1,1.85.163c.937.15,1.487-.175,1.487-.975v-.425A1.175,1.175,0,0,0,602.259,778.415Z" fill="#fff"/>
        <path id="Path_1852" data-name="Path 1852" d="M610.573,778.052c-.55,0-1.138.026-1.737.076v-3.911a1.042,1.042,0,0,0-1.15-1.151h-1.175a1.041,1.041,0,0,0-1.149,1.151v15.2a1.04,1.04,0,0,0,1.149,1.149h1.175a1.041,1.041,0,0,0,1.15-1.149v-8.361c.7-.05,1.312-.087,1.849-.087,2.425,0,3.4.8,3.4,3.449v5a1.04,1.04,0,0,0,1.149,1.149h1.175a1.04,1.04,0,0,0,1.149-1.149v-5C617.558,779.652,614.96,778.052,610.573,778.052Z" fill="#fff"/>
        <path id="Path_1853" data-name="Path 1853" d="M634.2,778.052c-2.213,0-3.525.638-4.249,1.763-.737-1.125-2.037-1.763-4.262-1.763-3.362,0-5.523,1.513-5.523,5.687v5.674a1.04,1.04,0,0,0,1.149,1.149h1.112a1.04,1.04,0,0,0,1.15-1.149v-5.849c0-1.787.763-2.587,2.412-2.587s2.262.8,2.262,2.587v5.849a1.04,1.04,0,0,0,1.15,1.149h1.1a1.04,1.04,0,0,0,1.149-1.149v-5.849c0-1.787.612-2.587,2.262-2.587s2.412.8,2.412,2.587v5.849a1.04,1.04,0,0,0,1.149,1.149h1.113a1.041,1.041,0,0,0,1.15-1.149v-5.674C639.732,779.565,637.57,778.052,634.2,778.052Z" fill="#fff"/>
        <path id="Path_1854" data-name="Path 1854" d="M647.7,778.052a18.974,18.974,0,0,0-3.786.438c-.813.163-1.2.612-1.2,1.3v.463c0,.8.474,1.162,1.261,1.011a17.183,17.183,0,0,1,3.225-.387c1.824,0,2.911.6,2.911,1.974v.2h-3.236c-3.037,0-4.911.813-4.911,3.762s1.861,3.749,4.911,3.749h2.837c2.686,0,3.874-.987,3.874-3.587v-4.124C653.584,779.49,651.084,778.052,647.7,778.052Zm2.412,8.748c0,.838-.175,1.275-1.249,1.275h-1.825c-1.5,0-1.812-.35-1.812-1.262s.313-1.274,1.824-1.274h3.062Z" fill="#fff"/>
        <path id="Path_1855" data-name="Path 1855" d="M662.335,778.052c-3.887,0-6.149,1.3-6.149,5.787v5.574a1.04,1.04,0,0,0,1.15,1.149h1.174a1.04,1.04,0,0,0,1.15-1.149v-5.624c0-2.2.8-2.812,2.675-2.812s2.673.613,2.673,2.812v5.624a1.041,1.041,0,0,0,1.151,1.149h1.174a1.041,1.041,0,0,0,1.15-1.149v-5.574C668.483,779.352,666.221,778.052,662.335,778.052Z" fill="#fff"/>
        <path id="Path_1856" data-name="Path 1856" d="M677.8,778.052c-4.374,0-6.973,1.613-6.973,6.374s2.6,6.361,6.973,6.361c.55,0,1.138-.025,1.75-.074v.261c0,1.4-1.174,1.962-2.862,1.962a12.661,12.661,0,0,1-2.7-.349c-.8-.175-1.274.187-1.274,1v.462a1.2,1.2,0,0,0,.974,1.287,13.633,13.633,0,0,0,3.374.45c3.361,0,5.961-1.5,5.961-4.812v-9C683.02,779.177,681.446,778.052,677.8,778.052Zm1.75,9.673a16.8,16.8,0,0,1-1.95.138c-2.324,0-3.3-.85-3.3-3.437s.975-3.449,3.262-3.449c1.787,0,1.987.5,1.987,1.525Z" fill="#fff"/>
        <path id="Path_1857" data-name="Path 1857" d="M691.684,778.052c-4.086,0-6.323,2.313-6.323,6.374s2.237,6.361,6.323,6.361,6.323-2.312,6.323-6.361S695.771,778.052,691.684,778.052Zm0,9.811c-1.874,0-2.8-1.037-2.8-3.437,0-2.424.925-3.449,2.8-3.449s2.8,1.025,2.8,3.449C694.484,786.826,693.559,787.863,691.684,787.863Z" fill="#fff"/>
      </g>
    </g>
    <g id="Layer_6" data-name="Layer 6">
      <g id="Group_551" data-name="Group 551">
        <path id="Path_1858" data-name="Path 1858" d="M433.29,766.937v8.255l18.385,10.7-20.739,12.267-.073-21.549-7.026-4.057v30.915a3.9,3.9,0,0,0,5.849,3.376L460.2,789.216a3.9,3.9,0,0,0,0-6.753Z" fill="#fff"/>
        <path id="Path_1859" data-name="Path 1859" d="M433.29,777.932l.135,15.912,13.581-7.917Z" fill="#fff"/>
        <path id="Path_1860" data-name="Path 1860" d="M430.936,773.667l-.061-8.124-7.223,4.062Z" fill="#fff"/>
        <path id="Path_1861" data-name="Path 1861" d="M423.837,766.539l4.516-2.66-4.516-2.4Z" fill="#fff"/>
      </g>
    </g>
  </g>
</svg>
