<svg xmlns="http://www.w3.org/2000/svg" xmlns:xlink="http://www.w3.org/1999/xlink" viewBox="0 0 226.28 144.16"><defs><style>.cls-1{fill:url(#linear-gradient);}.cls-2{fill:url(#linear-gradient-2);}.cls-3{fill:url(#linear-gradient-3);}.cls-4{fill:url(#linear-gradient-4);}.cls-5{fill:url(#linear-gradient-5);}.cls-6{fill:url(#linear-gradient-6);}.cls-7{fill:url(#linear-gradient-7);}.cls-8{fill:url(#linear-gradient-8);}.cls-9{fill:url(#linear-gradient-9);}.cls-10{fill:url(#linear-gradient-10);}.cls-11{fill:url(#linear-gradient-11);}.cls-12{fill:url(#linear-gradient-12);}.cls-13{fill:url(#linear-gradient-13);}.cls-14{fill:url(#linear-gradient-14);}.cls-15{fill:url(#linear-gradient-15);}.cls-16{fill:url(#linear-gradient-16);}.cls-17{fill:url(#linear-gradient-17);}.cls-18{fill:url(#linear-gradient-18);}.cls-19{fill:url(#linear-gradient-19);}.cls-20{fill:url(#linear-gradient-20);}.cls-21{fill:url(#linear-gradient-21);}</style><linearGradient id="linear-gradient" x1="7.41" y1="130.47" x2="160.41" y2="137.31" gradientUnits="userSpaceOnUse"><stop offset="0" stop-color="#581745"/><stop offset="1" stop-color="#ed1c24"/></linearGradient><linearGradient id="linear-gradient-2" x1="7.33" y1="132.21" x2="160.33" y2="139.05" xlink:href="#linear-gradient"/><linearGradient id="linear-gradient-3" x1="7.41" y1="130.35" x2="160.41" y2="137.19" xlink:href="#linear-gradient"/><linearGradient id="linear-gradient-4" x1="7.43" y1="129.9" x2="160.43" y2="136.74" xlink:href="#linear-gradient"/><linearGradient id="linear-gradient-5" x1="7.4" y1="130.65" x2="160.4" y2="137.49" xlink:href="#linear-gradient"/><linearGradient id="linear-gradient-6" x1="7.42" y1="130.08" x2="160.42" y2="136.92" xlink:href="#linear-gradient"/><linearGradient id="linear-gradient-7" x1="7.44" y1="129.68" x2="160.44" y2="136.52" xlink:href="#linear-gradient"/><linearGradient id="linear-gradient-8" x1="7.47" y1="129.06" x2="160.47" y2="135.9" xlink:href="#linear-gradient"/><linearGradient id="linear-gradient-9" x1="7.49" y1="128.52" x2="160.49" y2="135.36" xlink:href="#linear-gradient"/><linearGradient id="linear-gradient-10" x1="7.57" y1="126.68" x2="160.57" y2="133.52" xlink:href="#linear-gradient"/><linearGradient id="linear-gradient-11" x1="7.54" y1="127.43" x2="160.54" y2="134.27" xlink:href="#linear-gradient"/><linearGradient id="linear-gradient-12" x1="7.67" y1="124.48" x2="160.67" y2="131.32" xlink:href="#linear-gradient"/><linearGradient id="linear-gradient-13" x1="7.6" y1="126.04" x2="160.6" y2="132.88" xlink:href="#linear-gradient"/><linearGradient id="linear-gradient-14" x1="7.64" y1="125.18" x2="160.64" y2="132.02" xlink:href="#linear-gradient"/><linearGradient id="linear-gradient-15" x1="7.67" y1="124.61" x2="160.67" y2="131.45" xlink:href="#linear-gradient"/><linearGradient id="linear-gradient-16" x1="7.59" y1="126.44" x2="160.59" y2="133.28" xlink:href="#linear-gradient"/><linearGradient id="linear-gradient-17" x1="7.73" y1="123.31" x2="160.73" y2="130.15" xlink:href="#linear-gradient"/><linearGradient id="linear-gradient-18" x1="67.68" y1="61.22" x2="159.05" y2="61.22" xlink:href="#linear-gradient"/><linearGradient id="linear-gradient-19" x1="94.26" y1="49.46" x2="112.7" y2="76.48" gradientUnits="userSpaceOnUse"><stop offset="0" stop-color="#f47c3b"/><stop offset="0.67" stop-color="#ee2f5c"/></linearGradient><linearGradient id="linear-gradient-20" x1="76.12" y1="14.96" x2="85.37" y2="29.67" gradientUnits="userSpaceOnUse"><stop offset="0" stop-color="#f69f25"/><stop offset="0.13" stop-color="#f5932a"/><stop offset="0.45" stop-color="#f37c33"/><stop offset="0.74" stop-color="#f26e39"/><stop offset="1" stop-color="#f2693b"/></linearGradient><linearGradient id="linear-gradient-21" x1="72.8" y1="8.47" x2="67.16" y2="-0.7" gradientUnits="userSpaceOnUse"><stop offset="0" stop-color="#fdd110"/><stop offset="0.14" stop-color="#fcc517"/><stop offset="0.42" stop-color="#fbb121"/><stop offset="0.7" stop-color="#faa627"/><stop offset="1" stop-color="#faa229"/></linearGradient></defs><g id="Layer_2" data-name="Layer 2"><g id="Layer_1-2" data-name="Layer 1"><path class="cls-1" d="M5.21,126.43c-.55,0-1.14,0-1.74.07v-3.91a1,1,0,0,0-1.15-1.15H1.15A1,1,0,0,0,0,122.59v12.65c0,2.8,1.56,3.92,5.21,3.92,4.39,0,7-1.62,7-6.37S9.6,126.43,5.21,126.43Zm.24,9.81c-1.78,0-2-.51-2-1.53v-5.22a14.78,14.78,0,0,1,1.95-.15c2.33,0,3.3.83,3.3,3.45S7.75,136.24,5.45,136.24Z"/><path class="cls-2" d="M25.68,126.65H24.51a1,1,0,0,0-1.15,1.15v5.63c0,2.2-.8,2.81-2.67,2.81S18,135.63,18,133.43V127.8a1,1,0,0,0-1.15-1.15H15.69a1,1,0,0,0-1.15,1.15v5.58c0,4.48,2.26,5.78,6.15,5.78s6.14-1.3,6.14-5.78V127.8A1,1,0,0,0,25.68,126.65Z"/><path class="cls-3" d="M36.37,126.65H33V125a1,1,0,0,0-1.15-1.15H30.59A1,1,0,0,0,29.44,125v9.45c0,4.38,3.17,5.39,7.14,4.44a1.13,1.13,0,0,0,.93-1.23V137c0-.61-.3-.91-1.08-.91-.43,0-.86.13-1.52.13-1.37,0-1.94-.53-1.94-1.81v-4.9h3.4a1,1,0,0,0,1.15-1.15v-.55A1,1,0,0,0,36.37,126.65Z"/><path class="cls-4" d="M46.27,126.65h-3.4V125a1,1,0,0,0-1.15-1.15H40.49A1,1,0,0,0,39.34,125v9.45c0,4.38,3.17,5.39,7.15,4.44a1.13,1.13,0,0,0,.92-1.23V137c0-.61-.3-.91-1.08-.91-.43,0-.86.13-1.52.13-1.37,0-1.94-.53-1.94-1.81v-4.9h3.4a1,1,0,0,0,1.15-1.15v-.55A1,1,0,0,0,46.27,126.65Z"/><path class="cls-5" d="M55.32,126.43c-4.2,0-6.35,2.31-6.35,6.37,0,4.3,2.54,6.36,6.33,6.36a14.47,14.47,0,0,0,3.8-.55,1.19,1.19,0,0,0,1-1.28V137c0-.81-.49-1.16-1.3-1a12.52,12.52,0,0,1-2.86.4c-1.66,0-2.8-.5-3.25-1.9l5.29-.55c2.25-.24,3-1,3-2.73C60.93,128.08,58.85,126.43,55.32,126.43Zm1.46,5.09-4.31.43c.19-2.11,1.11-2.9,2.85-2.9s2.33.64,2.33,1.83C57.65,131.3,57.51,131.44,56.78,131.52Z"/><path class="cls-6" d="M69.49,126.54c-5.29.09-6.32.86-6.32,3.73v7.52a1,1,0,0,0,1.15,1.15h1.24a1,1,0,0,0,1.15-1.15v-7c0-.94.11-1.17,2.74-1.2.82,0,1.26-.43,1.26-1.17v-.72A1,1,0,0,0,69.49,126.54Z"/><path class="cls-7" d="M79.13,131.53l-2.81-.73c-.56-.14-.88-.42-.88-.83,0-1.15,2.87-1,5.29-.5.82.17,1.29-.18,1.29-1v-.3a1.19,1.19,0,0,0-1-1.29c-4.38-1.09-8.92-.34-8.92,3.18,0,1.68,1,2.91,3.5,3.53l2.63.68c.83.22,1.22.52,1.22,1.06,0,1.39-3,1.21-5.9.65-.81-.15-1.29.22-1.29,1v.35a1.21,1.21,0,0,0,1,1.29c4.46,1.18,9.52.46,9.52-3.4C82.77,133.35,81.58,132.15,79.13,131.53Z"/><path class="cls-8" d="M93.88,126.79a12.39,12.39,0,0,0-2.92-.36c-3.69,0-6.26,2.09-6.26,6.37s2.57,6.36,6.26,6.36a12.39,12.39,0,0,0,2.92-.36,1.17,1.17,0,0,0,1-1.27v-.43c0-.8-.46-1.15-1.26-1a12.93,12.93,0,0,1-2.08.2c-2.33,0-3.3-1-3.3-3.48s1-3.5,3.3-3.5a13.1,13.1,0,0,1,1.85.17c.94.15,1.49-.18,1.49-1v-.42A1.17,1.17,0,0,0,93.88,126.79Z"/><path class="cls-9" d="M103.05,126.43c-4.09,0-6.33,2.31-6.33,6.37s2.24,6.36,6.33,6.36,6.32-2.31,6.32-6.36S107.13,126.43,103.05,126.43Zm0,9.81c-1.88,0-2.8-1-2.8-3.44s.92-3.45,2.8-3.45,2.8,1,2.8,3.45S104.92,136.24,103.05,136.24Z"/><path class="cls-10" d="M118.65,126.65h-3.4V125a1,1,0,0,0-1.15-1.15h-1.24a1,1,0,0,0-1.15,1.15v9.45c0,4.38,3.17,5.39,7.15,4.44a1.13,1.13,0,0,0,.92-1.23V137c0-.61-.3-.91-1.07-.91-.44,0-.86.13-1.53.13-1.37,0-1.93-.53-1.93-1.81v-4.9h3.4a1,1,0,0,0,1.15-1.15v-.55A1,1,0,0,0,118.65,126.65Z"/><path class="cls-11" d="M130.53,126.79a12.39,12.39,0,0,0-2.92-.36c-3.69,0-6.26,2.09-6.26,6.37s2.57,6.36,6.26,6.36a12.39,12.39,0,0,0,2.92-.36,1.17,1.17,0,0,0,1-1.27v-.43c0-.8-.46-1.15-1.26-1a12.93,12.93,0,0,1-2.08.2c-2.34,0-3.3-1-3.3-3.48s1-3.5,3.3-3.5a13.1,13.1,0,0,1,1.85.17c.94.15,1.49-.18,1.49-1v-.42A1.17,1.17,0,0,0,130.53,126.79Z"/><path class="cls-12" d="M138.85,126.43c-.55,0-1.14,0-1.74.07v-3.91a1,1,0,0,0-1.15-1.15h-1.17a1,1,0,0,0-1.15,1.15v15.2a1,1,0,0,0,1.15,1.15H136a1,1,0,0,0,1.15-1.15v-8.36c.7-.05,1.31-.09,1.85-.09,2.42,0,3.4.8,3.4,3.45v5a1,1,0,0,0,1.15,1.15h1.17a1,1,0,0,0,1.15-1.15v-5C145.83,128,143.23,126.43,138.85,126.43Z"/><path class="cls-13" d="M162.47,126.43c-2.21,0-3.52.64-4.25,1.76-.74-1.12-2-1.76-4.26-1.76-3.36,0-5.52,1.51-5.52,5.69v5.67a1,1,0,0,0,1.14,1.15h1.12a1,1,0,0,0,1.15-1.15v-5.85c0-1.79.76-2.59,2.41-2.59s2.26.8,2.26,2.59v5.85a1,1,0,0,0,1.15,1.15h1.1a1,1,0,0,0,1.15-1.15v-5.85c0-1.79.61-2.59,2.26-2.59s2.41.8,2.41,2.59v5.85a1,1,0,0,0,1.15,1.15h1.12a1,1,0,0,0,1.15-1.15v-5.67C168,127.94,165.84,126.43,162.47,126.43Z"/><path class="cls-14" d="M176,126.43a18.87,18.87,0,0,0-3.79.44,1.26,1.26,0,0,0-1.19,1.3v.46c0,.8.47,1.16,1.26,1a16.91,16.91,0,0,1,3.22-.39c1.83,0,2.91.6,2.91,2v.2h-3.23c-3,0-4.91.81-4.91,3.76s1.86,3.75,4.91,3.75H178c2.69,0,3.88-1,3.88-3.59v-4.12C181.86,127.87,179.36,126.43,176,126.43Zm2.41,8.75c0,.83-.17,1.27-1.25,1.27h-1.82c-1.5,0-1.81-.35-1.81-1.26s.31-1.28,1.82-1.28h3.06Z"/><path class="cls-15" d="M190.61,126.43c-3.89,0-6.15,1.3-6.15,5.78v5.58a1,1,0,0,0,1.15,1.15h1.17a1,1,0,0,0,1.15-1.15v-5.63c0-2.19.8-2.81,2.68-2.81s2.67.62,2.67,2.81v5.63a1,1,0,0,0,1.15,1.15h1.18a1,1,0,0,0,1.15-1.15v-5.58C196.76,127.73,194.5,126.43,190.61,126.43Z"/><path class="cls-16" d="M206.07,126.43c-4.37,0-7,1.61-7,6.37s2.6,6.36,7,6.36c.55,0,1.14,0,1.75-.07v.26c0,1.4-1.17,2-2.86,2a12.2,12.2,0,0,1-2.7-.35c-.8-.17-1.28.19-1.28,1v.46a1.2,1.2,0,0,0,1,1.29,13.6,13.6,0,0,0,3.37.45c3.36,0,6-1.5,6-4.81v-9C211.29,127.55,209.72,126.43,206.07,126.43Zm1.75,9.67a16.5,16.5,0,0,1-1.95.14c-2.32,0-3.3-.85-3.3-3.44s1-3.45,3.26-3.45c1.79,0,2,.5,2,1.53Z"/><path class="cls-17" d="M220,126.43c-4.09,0-6.33,2.31-6.33,6.37s2.24,6.36,6.33,6.36,6.32-2.31,6.32-6.36S224,126.43,220,126.43Zm0,9.81c-1.88,0-2.8-1-2.8-3.44s.92-3.45,2.8-3.45,2.8,1,2.8,3.45S221.83,136.24,220,136.24Z"/></g><g id="Layer_6" data-name="Layer 6"><path class="cls-18" d="M90.22,13V32.7l43.85,25.51L84.61,87.46l-.18-51.39L67.68,26.39v73.73a9.29,9.29,0,0,0,13.94,8l72.78-42a9.3,9.3,0,0,0,0-16.11Z"/><polygon class="cls-19" points="90.22 39.23 90.54 77.18 122.93 58.3 90.22 39.23"/><polygon class="cls-20" points="84.61 29.06 84.46 9.68 67.23 19.37 84.61 29.06"/><polygon class="cls-21" points="67.68 12.06 78.44 5.72 67.68 0 67.68 12.06"/></g></g></svg>