<svg xmlns="http://www.w3.org/2000/svg" xmlns:xlink="http://www.w3.org/1999/xlink" width="19.4" height="20" viewBox="0 0 19.4 20">
  <defs>
    <linearGradient id="linear-gradient" x1="0.452" y1="-0.14" x2="0.521" y2="0.812" gradientUnits="objectBoundingBox">
      <stop offset="0" stop-color="#e4001b"/>
      <stop offset="1" stop-color="#430f35"/>
    </linearGradient>
    <linearGradient id="linear-gradient-2" x1="0.44" y1="-0.47" x2="0.526" y2="1.308" xlink:href="#linear-gradient"/>
    <linearGradient id="linear-gradient-3" x1="0.284" y1="-1.168" x2="0.636" y2="1.876" xlink:href="#linear-gradient"/>
    <linearGradient id="linear-gradient-4" x1="0.478" y1="0.298" x2="0.61" y2="1.579" xlink:href="#linear-gradient"/>
    <linearGradient id="linear-gradient-5" x1="0.516" y1="0.43" x2="1.051" y2="4.269" xlink:href="#linear-gradient"/>
  </defs>
  <g id="Media_Efficiency_Review" data-name="Media Efficiency Review" transform="translate(-74.85 -333.887)">
    <path id="Path_1730" data-name="Path 1730" d="M91.956,356.807a.465.465,0,0,0-.463.467v7.241H75.776v-9.228h7.553a.467.467,0,0,0,0-.933H75.313a.465.465,0,0,0-.463.467V366.9a.465.465,0,0,0,.463.467H81.1l-.258.742H79.3a.467.467,0,0,0,0,.933h8.663a.467.467,0,0,0,0-.933H86.587l-.284-.742h5.654a.465.465,0,0,0,.463-.467v-9.629A.465.465,0,0,0,91.956,356.807Zm-6.362,11.305H81.826l.258-.742h3.226Zm-9.819-1.676v-.988H91.494v.988Z" transform="translate(0 -15.159)" fill="url(#linear-gradient)"/>
    <path id="Path_1731" data-name="Path 1731" d="M81.323,360.576a.467.467,0,0,0-.467.467v7.033a.467.467,0,0,0,.467.467H94.858a.467.467,0,0,0,.467-.467v-2.787a.467.467,0,1,0-.933,0v2.32h-12.6v-6.1H88.1a.467.467,0,0,0,0-.933Z" transform="translate(-4.404 -19.659)" fill="url(#linear-gradient-2)"/>
    <path id="Path_1732" data-name="Path 1732" d="M103.551,366.952a.467.467,0,0,0-.255.416v3.6a.467.467,0,0,0,.739.379l2.488-1.785a.467.467,0,0,0,0-.757l-2.488-1.812A.466.466,0,0,0,103.551,366.952Zm.678,1.333,1.225.892-1.225.879Z" transform="translate(-20.929 -24.295)" fill="url(#linear-gradient-3)"/>
    <path id="Path_1733" data-name="Path 1733" d="M117.056,334.216a.467.467,0,0,0-.718-.242c-.027.019-2.531,1.814-3.565,2.578-.012,0-.024,0-.036.008l-2.216.71a.468.468,0,0,0-.282.251l-.237.521a.466.466,0,0,0-.021.332l.758,2.434a.467.467,0,0,0,.219.269l.511.284a.45.45,0,0,0,.057.023l.289,2.279a.47.47,0,0,0,.041.141,1.371,1.371,0,0,0,1.233.786,1.343,1.343,0,0,0,.16-.01,1.294,1.294,0,0,0,1.128-1.319.484.484,0,0,0,0-.062l-.285-2.5,4.4.319h.034a.467.467,0,0,0,.446-.6Zm-6.13,4.051L111,338.1l1.572-.5.735,2.334a.474.474,0,0,0-.064.054l-1.5.469-.173-.1Zm2.225,5.386a.439.439,0,0,1-.42-.195l-.285-2.25.737-.23.261,2.29C113.436,343.353,113.4,343.63,113.151,343.653Zm1.091-3.878-.8-2.553c.766-.564,2.159-1.566,2.918-2.111l1.521,4.928Z" transform="translate(-25.893)" fill="url(#linear-gradient-4)"/>
    <path id="Path_1734" data-name="Path 1734" d="M141.843,340.052a2.244,2.244,0,0,0-1.633-1.36.467.467,0,0,0-.188.914c.007,0,.76.169.929.721s-.386,1.171-.39,1.175a.467.467,0,1,0,.68.639A2.361,2.361,0,0,0,141.843,340.052Z" transform="translate(-47.666 -3.517)" fill="url(#linear-gradient-5)"/>
  </g>
</svg>
