<svg xmlns="http://www.w3.org/2000/svg" xmlns:xlink="http://www.w3.org/1999/xlink" width="80.74" height="75" viewBox="0 0 80.74 75">
  <defs>
    <linearGradient id="linear-gradient" x1="0.464" y1="0.027" x2="0.606" y2="1.603" gradientUnits="objectBoundingBox">
      <stop offset="0" stop-color="#e4001b"/>
      <stop offset="1" stop-color="#430f35"/>
    </linearGradient>
    <linearGradient id="linear-gradient-2" x1="0.377" y1="-0.236" x2="0.524" y2="1.088" xlink:href="#linear-gradient"/>
    <linearGradient id="linear-gradient-3" x1="0.417" y1="-0.439" x2="0.571" y2="1.302" xlink:href="#linear-gradient"/>
    <linearGradient id="linear-gradient-4" x1="0.313" y1="-1.639" x2="0.66" y2="2.326" xlink:href="#linear-gradient"/>
  </defs>
  <g id="Marketing_Managed_Services" data-name="Marketing Managed Services" transform="translate(-329.127 -504.577)">
    <path id="Path_1965" data-name="Path 1965" d="M360.851,551.5a1.693,1.693,0,0,0,.17.009,1.464,1.464,0,0,0,.167-2.919,20.656,20.656,0,0,1-3.316-.678l-.756-2.4a.676.676,0,0,1,0-.416,2.06,2.06,0,0,1,.5-.263c.15-.066.3-.133.448-.208a7.3,7.3,0,0,0,2.886-2.983c1.969-3.1.545-7.39.24-8.22a1.468,1.468,0,0,0-1.306-.957l-1.572-.074a6.19,6.19,0,0,0-3.1-1.636,5.589,5.589,0,0,0-1.015-.083c-.314-.006-.741-.013-1.549-.086-1.187-.109-1.322-.192-1.393-.237-.126-.078-.419-.259-.463-.5-.053-.288.25-.613.253-.616a1.47,1.47,0,0,0,.41-.831c.184-1.337.4-2.675.653-3.978a3.133,3.133,0,0,1,.486-1.495,2.21,2.21,0,0,1,1.264-.7,1.467,1.467,0,0,0,1.131-1.577,2.531,2.531,0,0,1,.669-1.941,2.658,2.658,0,0,1,2.333-.6,1.465,1.465,0,0,0,1.822-1.318l.264-3.8a1.465,1.465,0,0,0-.371-1.078l-1.581-1.769a1.461,1.461,0,0,0-1.784-.315l-3.749,2.008-1.272-.263a20.423,20.423,0,0,1,18.1-3.2,2.165,2.165,0,0,1-.686-.073,1.459,1.459,0,0,0-1.188.133,13.928,13.928,0,0,0-3.154,2.524c-.966,1.04-1.877,2.023-1.936,3.582a3.932,3.932,0,0,0,1.5,3.337,3.813,3.813,0,0,0,2.64.694,1.556,1.556,0,0,0,.376-.09,15.423,15.423,0,0,1,2.648-.757,10.547,10.547,0,0,1,4.392-.156,20.28,20.28,0,0,1,2.292.66c.208.075.392.146.559.211a6.464,6.464,0,0,0,1.919.51c.167.015.332.022.5.022a6.054,6.054,0,0,0,2.044-.365,1.458,1.458,0,0,0,.416-.239,20.239,20.239,0,0,1,1.132,2.446,1.465,1.465,0,1,0,2.739-1.039,23.541,23.541,0,1,0-24.75,31.726Zm19.3-35.608a3.085,3.085,0,0,1-1.122.139,3.82,3.82,0,0,1-1.121-.326c-.185-.072-.387-.15-.617-.233a23.148,23.148,0,0,0-2.68-.772,13.338,13.338,0,0,0-5.549.146,18.233,18.233,0,0,0-2.925.813.81.81,0,0,1-.451-.141,1.157,1.157,0,0,1-.31-.875c.016-.428.33-.8,1.155-1.695a10.826,10.826,0,0,1,2.014-1.695,4.749,4.749,0,0,0,2.773-.387,4.661,4.661,0,0,0,1.508-1.141A20.82,20.82,0,0,1,380.151,515.888ZM348.592,514l3.92.812a1.461,1.461,0,0,0,.988-.143l3.2-1.716.4.45-.121,1.732a5.169,5.169,0,0,0-4.9,4.6,4.827,4.827,0,0,0-1.769,1.336,5.691,5.691,0,0,0-1.095,2.8c-.233,1.218-.441,2.464-.619,3.711a3.492,3.492,0,0,0,1.1,5.254,5.54,5.54,0,0,0,2.674.666c.917.083,1.429.091,1.769.1a2.924,2.924,0,0,1,.538.036,3.652,3.652,0,0,1,1.931,1.2,1.462,1.462,0,0,0,1,.458l1.11.053c.371,1.43.579,3.435-.244,4.728A4.689,4.689,0,0,1,356.745,542c-.1.052-.208.1-.313.145a3.613,3.613,0,0,0-1.859,1.495,3.512,3.512,0,0,0-.309,2.537c.01.044.022.088.035.131l.074.234A20.583,20.583,0,0,1,348.592,514Z" transform="translate(-1.781 0)" fill="url(#linear-gradient)"/>
    <path id="Path_1966" data-name="Path 1966" d="M374.38,576.841H363.269v-4.8h5.52a1.465,1.465,0,1,0,0-2.929H334.829a2.774,2.774,0,0,1-2.773-2.773v-5.013h30.073a1.465,1.465,0,1,0,0-2.929H332.056l0-31.356a3.884,3.884,0,0,1,.93-2.35,3.933,3.933,0,0,1,2.583-1.291,1.465,1.465,0,0,0,1.328-1.59,1.451,1.451,0,0,0-1.589-1.328,6.718,6.718,0,0,0-6.179,6.493v39.364a5.7,5.7,0,0,0,5.706,5.7H360.34v4.8H349.878a1.465,1.465,0,1,0,0,2.929h24.5a1.465,1.465,0,1,0,0-2.929Z" transform="translate(0 -0.194)" fill="url(#linear-gradient-2)"/>
    <path id="Path_1967" data-name="Path 1967" d="M412.705,544.8h-3.831l-1.064-2.74,2.629-2.629a1.464,1.464,0,0,0,0-2.07l-5.21-5.21a1.465,1.465,0,0,0-2.071,0l-2.862,2.862-2.345-.843v-4.233a1.464,1.464,0,0,0-1.465-1.465h-7.627a1.464,1.464,0,0,0-1.465,1.465v3.638l-2.756,1.135-2.855-2.854a1.463,1.463,0,0,0-2.07,0l-5.533,5.532a1.466,1.466,0,0,0,0,2.071l2.3,2.3-1.265,2.929H372.8a1.465,1.465,0,0,0-1.465,1.465v7.413a1.464,1.464,0,0,0,1.465,1.465h2.688l1.266,3.413-2.3,2.3a1.463,1.463,0,0,0,0,2.07l5.209,5.209a1.464,1.464,0,0,0,2.071,0l2.748-2.748,2.915,1.193v3.743a1.464,1.464,0,0,0,1.465,1.464h7.52a1.464,1.464,0,0,0,1.465-1.464v-3.4l3.029-1.531,2.365,2.364a1.465,1.465,0,0,0,2.071,0L410,562.972a1.463,1.463,0,0,0,0-2.07l-2.3-2.3,1.543-3.348h3.467a1.465,1.465,0,0,0,1.465-1.465v-7.52A1.465,1.465,0,0,0,412.705,544.8Zm-1.465,7.52H408.3a1.463,1.463,0,0,0-1.33.851l-2.362,5.127a1.463,1.463,0,0,0,.294,1.649l1.987,1.987-2.617,2.616-2.079-2.079a1.461,1.461,0,0,0-1.7-.272l-4.78,2.417a1.464,1.464,0,0,0-.8,1.307v2.832h-4.591V565.5a1.464,1.464,0,0,0-.91-1.356l-4.726-1.934a1.466,1.466,0,0,0-1.59.321l-2.4,2.4-3.139-3.138,1.932-1.933a1.462,1.462,0,0,0,.337-1.545l-1.947-5.249a1.464,1.464,0,0,0-1.372-.955h-2.242v-4.484h1.919a1.464,1.464,0,0,0,1.344-.883l2.042-4.727a1.465,1.465,0,0,0-.309-1.616l-1.973-1.972,3.461-3.461,2.51,2.51a1.464,1.464,0,0,0,1.593.318l4.565-1.88a1.462,1.462,0,0,0,.907-1.354v-3.154h4.7v3.8a1.465,1.465,0,0,0,.97,1.378l4.189,1.5a1.465,1.465,0,0,0,1.53-.343l2.483-2.483,3.139,3.139-2.268,2.268a1.463,1.463,0,0,0-.33,1.566l1.772,4.565a1.464,1.464,0,0,0,1.365.934h3.369Z" transform="translate(-4.302 -1.499)" fill="url(#linear-gradient-3)"/>
    <path id="Path_1968" data-name="Path 1968" d="M394.65,543.076a9.387,9.387,0,1,0,9.387,9.387A9.4,9.4,0,0,0,394.65,543.076Zm0,15.845a6.458,6.458,0,1,1,6.458-6.458A6.465,6.465,0,0,1,394.65,558.921Z" transform="translate(-7.115 -4.844)" fill="url(#linear-gradient-4)"/>
  </g>
</svg>
