<svg xmlns="http://www.w3.org/2000/svg" width="19.814" height="20" viewBox="0 0 19.814 20">
  <g id="Digital_Services" data-name="Digital Services" transform="translate(-319.18 -637.902)">
    <path id="Path_1751" data-name="Path 1751" d="M338.671,644.778a2.142,2.142,0,0,0-.388-.407,2.176,2.176,0,0,0-1.425-.471.546.546,0,0,0,.017,1.091h.017a1.1,1.1,0,0,1,.708.231,1.03,1.03,0,0,1,.189.2.675.675,0,0,1,.113.393v9.567H320.271v-9.338a1.055,1.055,0,0,1,.258-.646,1.084,1.084,0,0,1,.7-.35.546.546,0,0,0-.091-1.088,2.129,2.129,0,0,0-1.96,2.06v11.859A1.825,1.825,0,0,0,321,659.7h7.58v1.238h-3.047a.546.546,0,0,0,0,1.092h7.382a.546.546,0,0,0,0-1.092h-3.243V659.7h7.5a1.825,1.825,0,0,0,1.823-1.823V645.813A1.744,1.744,0,0,0,338.671,644.778Zm-.769,13.1a.732.732,0,0,1-.732.731H321a.732.732,0,0,1-.731-.731v-1.405H337.9Z" transform="translate(0 -4.127)" fill="#fff"/>
    <path id="Path_1752" data-name="Path 1752" d="M332.056,650.015a.546.546,0,0,0,.546-.546v-7.819h10.211v7.876a.546.546,0,1,0,1.092,0V639.8a.58.58,0,0,0-.008-.093,2.217,2.217,0,0,0-1.712-1.788.556.556,0,0,0-.116-.013h-8.891a1.744,1.744,0,0,0-1.661,1.5.581.581,0,0,0-.005.077v9.992A.546.546,0,0,0,332.056,650.015Zm.546-10.492a.653.653,0,0,1,.6-.529H342a1.123,1.123,0,0,1,.81.854v.712H332.6Z" transform="translate(-8.485 0)" fill="#fff"/>
    <path id="Path_1753" data-name="Path 1753" d="M339.52,657.453h2.33a.991.991,0,0,0,.99-.99v-2.33a.991.991,0,0,0-.99-.99h-2.33a.991.991,0,0,0-.99.99v2.33A.991.991,0,0,0,339.52,657.453Zm.1-3.218h2.127v2.127h-2.127Z" transform="translate(-13.315 -10.488)" fill="#fff"/>
    <path id="Path_1754" data-name="Path 1754" d="M356.517,654.822H354.2a.546.546,0,0,0,0,1.092h2.322a.546.546,0,0,0,0-1.092Z" transform="translate(-23.72 -11.643)" fill="#fff"/>
    <path id="Path_1755" data-name="Path 1755" d="M356.517,660.582H354.2a.546.546,0,0,0,0,1.092h2.322a.546.546,0,0,0,0-1.092Z" transform="translate(-23.72 -15.607)" fill="#fff"/>
    <path id="Path_1756" data-name="Path 1756" d="M337.45,671.193a.546.546,0,0,0,.546.546h7.374a.546.546,0,0,0,0-1.092H338A.546.546,0,0,0,337.45,671.193Z" transform="translate(-12.572 -22.533)" fill="#fff"/>
  </g>
</svg>
